<svg style="position: absolute; width: 0; height: 0; overflow: hidden;" version="1.1" xmlns="http://www.w3.org/2000/svg">
<defs>
<symbol id="icon-info" viewBox="0 0 50 50">
<path d="M25,2C12.297,2,2,12.297,2,25s10.297,23,23,23s23-10.297,23-23S37.703,2,25,2z M25,11c1.657,0,3,1.343,3,3s-1.343,3-3,3 s-3-1.343-3-3S23.343,11,25,11z M29,38h-2h-4h-2v-2h2V23h-2v-2h2h4v2v13h2V38z"/>
</symbol>

<symbol id="icon-close" viewBox="0 0 24 24">
<path d="M12,2C6.47,2,2,6.47,2,12c0,5.53,4.47,10,10,10s10-4.47,10-10C22,6.47,17.53,2,12,2z M16.707,15.293 c0.391,0.391,0.391,1.023,0,1.414C16.512,16.902,16.256,17,16,17s-0.512-0.098-0.707-0.293L12,13.414l-3.293,3.293 C8.512,16.902,8.256,17,8,17s-0.512-0.098-0.707-0.293c-0.391-0.391-0.391-1.023,0-1.414L10.586,12L7.293,8.707 c-0.391-0.391-0.391-1.023,0-1.414s1.023-0.391,1.414,0L12,10.586l3.293-3.293c0.391-0.391,1.023-0.391,1.414,0 s0.391,1.023,0,1.414L13.414,12L16.707,15.293z"/>
</symbol>
</defs>
</svg>